<?xml version="1.0" encoding="UTF-8" standalone="no"?>
<!DOCTYPE svg PUBLIC "-//W3C//DTD SVG 1.1//EN" "http://www.w3.org/Graphics/SVG/1.1/DTD/svg11.dtd">
<!-- Generated by graphviz version 2.40.1 (20161225.0304)
 -->
<!-- Title: grammar.y Pages: 1 -->
<svg width="1439pt" height="835pt" viewBox="0.00 0.00 1438.99 834.60" xmlns="http://www.w3.org/2000/svg" xmlns:xlink="http://www.w3.org/1999/xlink">
<g id="graph0" class="graph" transform="scale(1 1) rotate(0) translate(4 830.6)">
<title>grammar.y</title>
<polygon fill="#ffffff" stroke="transparent" points="-4,4 -4,-830.6 1434.9936,-830.6 1434.9936,4 -4,4"/>
<!-- 0 -->
<g id="node1" class="node">
<title>0</title>
<polygon fill="none" stroke="#000000" points="545.6679,-826.4014 336.3321,-826.4014 336.3321,-769.1986 545.6679,-769.1986 545.6679,-826.4014"/>
<text text-anchor="middle" x="441" y="-810" font-family="Courier,monospace" font-size="14.00" fill="#000000">State 0</text>
<text text-anchor="start" x="344.4161" y="-777.2" font-family="Courier,monospace" font-size="14.00" fill="#000000">  0 $accept: . all $end</text>
</g>
<!-- 1 -->
<g id="node2" class="node">
<title>1</title>
<polygon fill="none" stroke="#000000" points="574.958,-716.0014 307.042,-716.0014 307.042,-658.7986 574.958,-658.7986 574.958,-716.0014"/>
<text text-anchor="middle" x="441" y="-699.6" font-family="Courier,monospace" font-size="14.00" fill="#000000">State 1</text>
<text text-anchor="start" x="315.021" y="-666.8" font-family="Courier,monospace" font-size="14.00" fill="#000000">  2 dir: LBRACE . files RBRACE</text>
</g>
<!-- 0&#45;&gt;1 -->
<g id="edge1" class="edge">
<title>0-&gt;1</title>
<path fill="none" stroke="#000000" d="M441,-769.0819C441,-756.1504 441,-740.6778 441,-726.6942"/>
<polygon fill="#000000" stroke="#000000" points="444.5001,-726.3578 441,-716.3578 437.5001,-726.3579 444.5001,-726.3578"/>
<text text-anchor="middle" x="466.1958" y="-738.4" font-family="Courier,monospace" font-size="14.00" fill="#000000">LBRACE</text>
</g>
<!-- 2 -->
<g id="node3" class="node">
<title>2</title>
<polygon fill="none" stroke="#000000" points="411.965,-368.4011 186.035,-368.4011 186.035,-293.5989 411.965,-293.5989 411.965,-368.4011"/>
<text text-anchor="middle" x="299" y="-351.6" font-family="Courier,monospace" font-size="14.00" fill="#000000">State 2</text>
<text text-anchor="start" x="194.0175" y="-318.8" font-family="Courier,monospace" font-size="14.00" fill="#000000">  8 file: STR .</text>
<text text-anchor="start" x="194.0175" y="-302" font-family="Courier,monospace" font-size="14.00" fill="#000000">  9     | STR . COLON dir</text>
</g>
<!-- 0&#45;&gt;2 -->
<g id="edge2" class="edge">
<title>0-&gt;2</title>
<path fill="none" stroke="#000000" d="M336.1821,-787.8886C224.0095,-774.303 62,-744.7538 62,-687.4 62,-687.4 62,-687.4 62,-449.8 62,-392.4773 118.0945,-362.8117 175.7032,-347.4601"/>
<polygon fill="#000000" stroke="#000000" points="176.8658,-350.7766 185.706,-344.937 175.1537,-343.9892 176.8658,-350.7766"/>
<text text-anchor="middle" x="74.5979" y="-564.4" font-family="Courier,monospace" font-size="14.00" fill="#000000">STR</text>
</g>
<!-- 3 -->
<g id="node4" class="node">
<title>3</title>
<polygon fill="none" stroke="#000000" points="1059.6679,-716.0014 850.3321,-716.0014 850.3321,-658.7986 1059.6679,-658.7986 1059.6679,-716.0014"/>
<text text-anchor="middle" x="955" y="-699.6" font-family="Courier,monospace" font-size="14.00" fill="#000000">State 3</text>
<text text-anchor="start" x="858.4161" y="-666.8" font-family="Courier,monospace" font-size="14.00" fill="#000000">  0 $accept: all . $end</text>
</g>
<!-- 0&#45;&gt;3 -->
<g id="edge3" class="edge">
<title>0-&gt;3</title>
<path fill="none" stroke="#000000" stroke-dasharray="5,2" d="M545.6351,-775.3258C631.2188,-756.9437 752.0839,-730.9835 840.2922,-712.0376"/>
<polygon fill="#000000" stroke="#000000" points="841.029,-715.4593 850.071,-709.9373 839.559,-708.6154 841.029,-715.4593"/>
<text text-anchor="middle" x="741.5979" y="-738.4" font-family="Courier,monospace" font-size="14.00" fill="#000000">all</text>
</g>
<!-- 4 -->
<g id="node5" class="node">
<title>4</title>
<polygon fill="none" stroke="#000000" points="1380.5811,-716.0014 1247.4189,-716.0014 1247.4189,-658.7986 1380.5811,-658.7986 1380.5811,-716.0014"/>
<text text-anchor="middle" x="1314" y="-699.6" font-family="Courier,monospace" font-size="14.00" fill="#000000">State 4</text>
<text text-anchor="start" x="1255.2098" y="-666.8" font-family="Courier,monospace" font-size="14.00" fill="#000000">  1 all: dir .</text>
</g>
<!-- 0&#45;&gt;4 -->
<g id="edge4" class="edge">
<title>0-&gt;4</title>
<path fill="none" stroke="#000000" stroke-dasharray="5,2" d="M545.8703,-784.5381C723.7478,-762.0436 1080.5236,-716.9255 1237.2163,-697.1101"/>
<polygon fill="#000000" stroke="#000000" points="1237.7621,-700.569 1247.244,-695.842 1236.8838,-693.6244 1237.7621,-700.569"/>
<text text-anchor="middle" x="942.5979" y="-738.4" font-family="Courier,monospace" font-size="14.00" fill="#000000">dir</text>
</g>
<!-- 5 -->
<g id="node6" class="node">
<title>5</title>
<polygon fill="none" stroke="#000000" points="176.979,-130.4014 35.021,-130.4014 35.021,-73.1986 176.979,-73.1986 176.979,-130.4014"/>
<text text-anchor="middle" x="106" y="-114" font-family="Courier,monospace" font-size="14.00" fill="#000000">State 5</text>
<text text-anchor="start" x="43.0105" y="-81.2" font-family="Courier,monospace" font-size="14.00" fill="#000000">  3 dir: file .</text>
</g>
<!-- 0&#45;&gt;5 -->
<g id="edge5" class="edge">
<title>0-&gt;5</title>
<path fill="none" stroke="#000000" stroke-dasharray="5,2" d="M336.2096,-792.3572C205.7852,-782.6542 0,-756.4102 0,-687.4 0,-687.4 0,-687.4 0,-212.2 0,-181.1658 22.0642,-155.4695 46.0596,-136.7002"/>
<polygon fill="#000000" stroke="#000000" points="48.3149,-139.3845 54.2421,-130.6028 44.1322,-133.7715 48.3149,-139.3845"/>
<text text-anchor="middle" x="16.7972" y="-445.6" font-family="Courier,monospace" font-size="14.00" fill="#000000">file</text>
</g>
<!-- 1&#45;&gt;2 -->
<g id="edge6" class="edge">
<title>1-&gt;2</title>
<path fill="none" stroke="#000000" d="M439.2972,-658.7015C436.3247,-626.0826 428.1919,-572.0961 406,-531.4 390.2316,-502.4835 371.6966,-506.3784 354,-478.6 334.2649,-447.6217 320.0982,-408.5188 311.0895,-378.3445"/>
<polygon fill="#000000" stroke="#000000" points="314.3758,-377.1097 308.2315,-368.4784 307.6522,-379.0574 314.3758,-377.1097"/>
<text text-anchor="middle" x="404.5979" y="-500.8" font-family="Courier,monospace" font-size="14.00" fill="#000000">STR</text>
</g>
<!-- 6 -->
<g id="node7" class="node">
<title>6</title>
<polygon fill="none" stroke="#000000" points="1120.958,-597.2014 853.042,-597.2014 853.042,-539.9986 1120.958,-539.9986 1120.958,-597.2014"/>
<text text-anchor="middle" x="987" y="-580.8" font-family="Courier,monospace" font-size="14.00" fill="#000000">State 6</text>
<text text-anchor="start" x="861.021" y="-548" font-family="Courier,monospace" font-size="14.00" fill="#000000">  2 dir: LBRACE files . RBRACE</text>
</g>
<!-- 1&#45;&gt;6 -->
<g id="edge7" class="edge">
<title>1-&gt;6</title>
<path fill="none" stroke="#000000" stroke-dasharray="5,2" d="M575.2772,-676.4496C671.0062,-667.7277 790.9267,-654.6798 839,-640.6 870.2886,-631.4361 903.0872,-616.1378 929.834,-601.9939"/>
<polygon fill="#000000" stroke="#000000" points="931.5085,-605.0675 938.6617,-597.252 928.196,-598.9008 931.5085,-605.0675"/>
<text text-anchor="middle" x="902.9965" y="-628" font-family="Courier,monospace" font-size="14.00" fill="#000000">files</text>
</g>
<!-- 7 -->
<g id="node8" class="node">
<title>7</title>
<polygon fill="none" stroke="#000000" points="314.6679,-597.2014 105.3321,-597.2014 105.3321,-539.9986 314.6679,-539.9986 314.6679,-597.2014"/>
<text text-anchor="middle" x="210" y="-580.8" font-family="Courier,monospace" font-size="14.00" fill="#000000">State 7</text>
<text text-anchor="start" x="113.4161" y="-548" font-family="Courier,monospace" font-size="14.00" fill="#000000">  5 files: collection .</text>
</g>
<!-- 1&#45;&gt;7 -->
<g id="edge8" class="edge">
<title>1-&gt;7</title>
<path fill="none" stroke="#000000" stroke-dasharray="5,2" d="M353.2893,-658.7766C339.5504,-653.3146 325.7081,-647.2133 313.014,-640.6 292.8919,-630.1169 272.1203,-616.2708 254.5468,-603.5233"/>
<polygon fill="#000000" stroke="#000000" points="256.3216,-600.4837 246.1936,-597.3733 252.1713,-606.1207 256.3216,-600.4837"/>
<text text-anchor="middle" x="355.993" y="-628" font-family="Courier,monospace" font-size="14.00" fill="#000000">collection</text>
</g>
<!-- 8 -->
<g id="node9" class="node">
<title>8</title>
<polygon fill="none" stroke="#000000" points="796.5457,-606.0011 453.4543,-606.0011 453.4543,-531.1989 796.5457,-531.1989 796.5457,-606.0011"/>
<text text-anchor="middle" x="625" y="-589.2" font-family="Courier,monospace" font-size="14.00" fill="#000000">State 8</text>
<text text-anchor="start" x="461.2273" y="-556.4" font-family="Courier,monospace" font-size="14.00" fill="#000000">  6 collection: file .</text>
<text text-anchor="start" x="461.2273" y="-539.6" font-family="Courier,monospace" font-size="14.00" fill="#000000">  7           | file . COMMA collection</text>
</g>
<!-- 1&#45;&gt;8 -->
<g id="edge9" class="edge">
<title>1-&gt;8</title>
<path fill="none" stroke="#000000" stroke-dasharray="5,2" d="M485.5413,-658.6418C507.5187,-644.452 534.472,-627.0496 558.8049,-611.339"/>
<polygon fill="#000000" stroke="#000000" points="560.7874,-614.2252 567.29,-605.8606 556.9904,-608.3444 560.7874,-614.2252"/>
<text text-anchor="middle" x="555.7972" y="-628" font-family="Courier,monospace" font-size="14.00" fill="#000000">file</text>
</g>
<!-- 1R4 -->
<g id="node10" class="node">
<title>1R4</title>
<polygon fill="#b2df8a" stroke="#000000" points="365,-586.6 333.0127,-568.6 365,-550.6 396.9873,-568.6 365,-586.6"/>
<text text-anchor="middle" x="365" y="-564.4" font-family="Courier,monospace" font-size="14.00" fill="#000000">R4</text>
</g>
<!-- 1&#45;&gt;1R4 -->
<g id="edge10" class="edge">
<title>1-&gt;1R4</title>
<path fill="none" stroke="#000000" d="M422.5892,-658.6943C418.7573,-652.7154 414.7456,-646.4528 411,-640.6 400.2434,-623.7917 388.0888,-604.7656 378.976,-590.4945"/>
<polygon fill="#000000" stroke="#000000" points="381.8036,-588.4192 373.4722,-581.8741 375.9036,-592.1861 381.8036,-588.4192"/>
</g>
<!-- 9 -->
<g id="node11" class="node">
<title>9</title>
<polygon fill="none" stroke="#000000" points="459.965,-240.8014 234.035,-240.8014 234.035,-183.5986 459.965,-183.5986 459.965,-240.8014"/>
<text text-anchor="middle" x="347" y="-224.4" font-family="Courier,monospace" font-size="14.00" fill="#000000">State 9</text>
<text text-anchor="start" x="242.0175" y="-191.6" font-family="Courier,monospace" font-size="14.00" fill="#000000">  9 file: STR COLON . dir</text>
</g>
<!-- 2&#45;&gt;9 -->
<g id="edge11" class="edge">
<title>2-&gt;9</title>
<path fill="none" stroke="#000000" d="M317.307,-293.5283C319.9921,-287.6411 322.6434,-281.5887 325,-275.8 328.293,-267.7111 331.5386,-258.9235 334.4838,-250.5349"/>
<polygon fill="#000000" stroke="#000000" points="337.8424,-251.5311 337.788,-240.9364 331.2236,-249.2526 337.8424,-251.5311"/>
<text text-anchor="middle" x="351.9965" y="-263.2" font-family="Courier,monospace" font-size="14.00" fill="#000000">COLON</text>
</g>
<!-- 2R8 -->
<g id="node12" class="node">
<title>2R8</title>
<polygon fill="#b2df8a" stroke="#000000" points="184,-230.2 152.0127,-212.2 184,-194.2 215.9873,-212.2 184,-230.2"/>
<text text-anchor="middle" x="184" y="-208" font-family="Courier,monospace" font-size="14.00" fill="#000000">R8</text>
</g>
<!-- 2&#45;&gt;2R8 -->
<g id="edge12" class="edge">
<title>2-&gt;2R8</title>
<path fill="none" stroke="#000000" d="M262.9288,-293.7369C243.003,-273.1526 219.0707,-248.4296 202.8217,-231.6436"/>
<polygon fill="#000000" stroke="#000000" points="204.9834,-228.8445 195.5133,-224.0938 199.9538,-233.7132 204.9834,-228.8445"/>
</g>
<!-- 10 -->
<g id="node13" class="node">
<title>10</title>
<polygon fill="none" stroke="#000000" points="1348.6679,-597.2014 1139.3321,-597.2014 1139.3321,-539.9986 1348.6679,-539.9986 1348.6679,-597.2014"/>
<text text-anchor="middle" x="1244" y="-580.8" font-family="Courier,monospace" font-size="14.00" fill="#000000">State 10</text>
<text text-anchor="start" x="1147.4161" y="-548" font-family="Courier,monospace" font-size="14.00" fill="#000000">  0 $accept: all $end .</text>
</g>
<!-- 3&#45;&gt;10 -->
<g id="edge13" class="edge">
<title>3-&gt;10</title>
<path fill="none" stroke="#000000" d="M1024.5905,-658.7933C1066.8369,-641.4269 1120.8908,-619.2068 1164.7753,-601.1671"/>
<polygon fill="#000000" stroke="#000000" points="1166.3442,-604.3064 1174.2625,-597.2672 1163.6827,-597.8321 1166.3442,-604.3064"/>
<text text-anchor="middle" x="1125.7972" y="-628" font-family="Courier,monospace" font-size="14.00" fill="#000000">$end</text>
</g>
<!-- 4R1 -->
<g id="node14" class="node">
<title>4R1</title>
<polygon fill="#b2df8a" stroke="#000000" points="1399,-586.6 1367.0127,-568.6 1399,-550.6 1430.9873,-568.6 1399,-586.6"/>
<text text-anchor="middle" x="1399" y="-564.4" font-family="Courier,monospace" font-size="14.00" fill="#000000">R1</text>
</g>
<!-- 4&#45;&gt;4R1 -->
<g id="edge14" class="edge">
<title>4-&gt;4R1</title>
<path fill="none" stroke="#000000" d="M1334.5761,-658.6418C1349.7608,-637.419 1370.0874,-609.0096 1383.8156,-589.8224"/>
<polygon fill="#000000" stroke="#000000" points="1386.8225,-591.6348 1389.7949,-581.4654 1381.1296,-587.5616 1386.8225,-591.6348"/>
</g>
<!-- 5R3 -->
<g id="node15" class="node">
<title>5R3</title>
<polygon fill="#b2df8a" stroke="#000000" points="106,-36 74.0127,-18 106,0 137.9873,-18 106,-36"/>
<text text-anchor="middle" x="106" y="-13.8" font-family="Courier,monospace" font-size="14.00" fill="#000000">R3</text>
</g>
<!-- 5&#45;&gt;5R3 -->
<g id="edge15" class="edge">
<title>5-&gt;5R3</title>
<path fill="none" stroke="#000000" d="M106,-72.9608C106,-64.4388 106,-55.1159 106,-46.6085"/>
<polygon fill="#000000" stroke="#000000" points="109.5001,-46.3902 106,-36.3903 102.5001,-46.3903 109.5001,-46.3902"/>
</g>
<!-- 11 -->
<g id="node16" class="node">
<title>11</title>
<polygon fill="none" stroke="#000000" points="1160.958,-478.4014 893.042,-478.4014 893.042,-421.1986 1160.958,-421.1986 1160.958,-478.4014"/>
<text text-anchor="middle" x="1027" y="-462" font-family="Courier,monospace" font-size="14.00" fill="#000000">State 11</text>
<text text-anchor="start" x="901.021" y="-429.2" font-family="Courier,monospace" font-size="14.00" fill="#000000">  2 dir: LBRACE files RBRACE .</text>
</g>
<!-- 6&#45;&gt;11 -->
<g id="edge16" class="edge">
<title>6-&gt;11</title>
<path fill="none" stroke="#000000" d="M996.6829,-539.8418C1001.9014,-524.3427 1008.4105,-505.0108 1014.0582,-488.2372"/>
<polygon fill="#000000" stroke="#000000" points="1017.3936,-489.2992 1017.2676,-478.7051 1010.7596,-487.0654 1017.3936,-489.2992"/>
<text text-anchor="middle" x="1036.1958" y="-500.8" font-family="Courier,monospace" font-size="14.00" fill="#000000">RBRACE</text>
</g>
<!-- 7R5 -->
<g id="node17" class="node">
<title>7R5</title>
<polygon fill="#b2df8a" stroke="#000000" points="210,-467.8 178.0127,-449.8 210,-431.8 241.9873,-449.8 210,-467.8"/>
<text text-anchor="middle" x="210" y="-445.6" font-family="Courier,monospace" font-size="14.00" fill="#000000">R5</text>
</g>
<!-- 7&#45;&gt;7R5 -->
<g id="edge17" class="edge">
<title>7-&gt;7R5</title>
<path fill="none" stroke="#000000" d="M210,-539.8418C210,-521.1281 210,-496.8268 210,-478.1875"/>
<polygon fill="#000000" stroke="#000000" points="213.5001,-477.9522 210,-467.9523 206.5001,-477.9523 213.5001,-477.9522"/>
</g>
<!-- 12 -->
<g id="node18" class="node">
<title>12</title>
<polygon fill="none" stroke="#000000" points="706.5457,-478.4014 363.4543,-478.4014 363.4543,-421.1986 706.5457,-421.1986 706.5457,-478.4014"/>
<text text-anchor="middle" x="535" y="-462" font-family="Courier,monospace" font-size="14.00" fill="#000000">State 12</text>
<text text-anchor="start" x="371.2273" y="-429.2" font-family="Courier,monospace" font-size="14.00" fill="#000000">  7 collection: file COMMA . collection</text>
</g>
<!-- 8&#45;&gt;12 -->
<g id="edge18" class="edge">
<title>8-&gt;12</title>
<path fill="none" stroke="#000000" d="M604.3955,-531.2653C597.4803,-519.7794 589.3817,-507.3405 581,-496.6 578.2446,-493.0691 575.2507,-489.5191 572.1565,-486.039"/>
<polygon fill="#000000" stroke="#000000" points="574.6247,-483.5524 565.2762,-478.5667 569.4751,-488.294 574.6247,-483.5524"/>
<text text-anchor="middle" x="612.9965" y="-500.8" font-family="Courier,monospace" font-size="14.00" fill="#000000">COMMA</text>
</g>
<!-- 8R6 -->
<g id="node19" class="node">
<title>8R6</title>
<polygon fill="#b2df8a" stroke="#000000" points="757,-467.8 725.0127,-449.8 757,-431.8 788.9873,-449.8 757,-467.8"/>
<text text-anchor="middle" x="757" y="-445.6" font-family="Courier,monospace" font-size="14.00" fill="#000000">R6</text>
</g>
<!-- 8&#45;&gt;8R6 -->
<g id="edge19" class="edge">
<title>8-&gt;8R6</title>
<path fill="none" stroke="#000000" d="M666.4035,-531.3369C689.9819,-510.1163 718.4477,-484.497 737.1,-467.71"/>
<polygon fill="#000000" stroke="#000000" points="739.5967,-470.1718 744.6883,-460.8805 734.9139,-464.9687 739.5967,-470.1718"/>
</g>
<!-- 9&#45;&gt;1 -->
<g id="edge20" class="edge">
<title>9-&gt;1</title>
<path fill="none" stroke="#000000" d="M460.0684,-226.3877C569.7127,-241.3867 727.3998,-266.6024 783,-293.8 805.3995,-304.757 825,-306.0642 825,-331 825,-568.6 825,-568.6 825,-568.6 825,-587.165 820.6746,-594.4283 806,-605.8 771.3438,-632.656 671.6797,-653.8854 585.2378,-667.9509"/>
<polygon fill="#000000" stroke="#000000" points="584.6257,-664.5043 575.3069,-669.5451 585.7353,-671.4158 584.6257,-664.5043"/>
<text text-anchor="middle" x="850.1958" y="-445.6" font-family="Courier,monospace" font-size="14.00" fill="#000000">LBRACE</text>
</g>
<!-- 9&#45;&gt;2 -->
<g id="edge21" class="edge">
<title>9-&gt;2</title>
<path fill="none" stroke="#000000" d="M308.047,-240.8657C303.0784,-246.305 298.7181,-252.3883 295.8042,-259 292.4678,-266.5702 291.068,-275.0327 290.827,-283.4217"/>
<polygon fill="#000000" stroke="#000000" points="287.3308,-283.6345 291.0554,-293.553 294.329,-283.4766 287.3308,-283.6345"/>
<text text-anchor="middle" x="308.5979" y="-263.2" font-family="Courier,monospace" font-size="14.00" fill="#000000">STR</text>
</g>
<!-- 9&#45;&gt;5 -->
<g id="edge23" class="edge">
<title>9-&gt;5</title>
<path fill="none" stroke="#000000" stroke-dasharray="5,2" d="M284.3092,-183.4819C251.8014,-168.5903 211.9373,-150.3289 178.1519,-134.8522"/>
<polygon fill="#000000" stroke="#000000" points="179.3443,-131.5487 168.7951,-130.5659 176.4289,-137.9127 179.3443,-131.5487"/>
<text text-anchor="middle" x="257.7972" y="-152.8" font-family="Courier,monospace" font-size="14.00" fill="#000000">file</text>
</g>
<!-- 13 -->
<g id="node20" class="node">
<title>13</title>
<polygon fill="none" stroke="#000000" points="459.965,-130.4014 234.035,-130.4014 234.035,-73.1986 459.965,-73.1986 459.965,-130.4014"/>
<text text-anchor="middle" x="347" y="-114" font-family="Courier,monospace" font-size="14.00" fill="#000000">State 13</text>
<text text-anchor="start" x="242.0175" y="-81.2" font-family="Courier,monospace" font-size="14.00" fill="#000000">  9 file: STR COLON dir .</text>
</g>
<!-- 9&#45;&gt;13 -->
<g id="edge22" class="edge">
<title>9-&gt;13</title>
<path fill="none" stroke="#000000" stroke-dasharray="5,2" d="M347,-183.4819C347,-170.5504 347,-155.0778 347,-141.0942"/>
<polygon fill="#000000" stroke="#000000" points="350.5001,-140.7578 347,-130.7578 343.5001,-140.7579 350.5001,-140.7578"/>
<text text-anchor="middle" x="359.5979" y="-152.8" font-family="Courier,monospace" font-size="14.00" fill="#000000">dir</text>
</g>
<!-- 10R0 -->
<g id="node21" class="node">
<title>10R0</title>
<polygon fill="#a6cee3" stroke="#000000" points="1244,-467.8 1203.6262,-449.8 1244,-431.8 1284.3738,-449.8 1244,-467.8"/>
<text text-anchor="middle" x="1244" y="-445.6" font-family="Courier,monospace" font-size="14.00" fill="#000000">Acc</text>
</g>
<!-- 10&#45;&gt;10R0 -->
<g id="edge24" class="edge">
<title>10-&gt;10R0</title>
<path fill="none" stroke="#000000" d="M1244,-539.8418C1244,-521.1281 1244,-496.8268 1244,-478.1875"/>
<polygon fill="#000000" stroke="#000000" points="1247.5001,-477.9522 1244,-467.9523 1240.5001,-477.9523 1247.5001,-477.9522"/>
</g>
<!-- 11R2 -->
<g id="node22" class="node">
<title>11R2</title>
<polygon fill="#b2df8a" stroke="#000000" points="1027,-349 995.0127,-331 1027,-313 1058.9873,-331 1027,-349"/>
<text text-anchor="middle" x="1027" y="-326.8" font-family="Courier,monospace" font-size="14.00" fill="#000000">R2</text>
</g>
<!-- 11&#45;&gt;11R2 -->
<g id="edge25" class="edge">
<title>11-&gt;11R2</title>
<path fill="none" stroke="#000000" d="M1027,-421.0418C1027,-402.3281 1027,-378.0268 1027,-359.3875"/>
<polygon fill="#000000" stroke="#000000" points="1030.5001,-359.1522 1027,-349.1523 1023.5001,-359.1523 1030.5001,-359.1522"/>
</g>
<!-- 12&#45;&gt;2 -->
<g id="edge26" class="edge">
<title>12-&gt;2</title>
<path fill="none" stroke="#000000" d="M478.1718,-421.1933C449.4961,-406.7582 414.1586,-388.9697 382.4658,-373.0158"/>
<polygon fill="#000000" stroke="#000000" points="383.7027,-369.7201 373.1969,-368.3499 380.5553,-375.9726 383.7027,-369.7201"/>
<text text-anchor="middle" x="451.5979" y="-390.4" font-family="Courier,monospace" font-size="14.00" fill="#000000">STR</text>
</g>
<!-- 12&#45;&gt;8 -->
<g id="edge28" class="edge">
<title>12-&gt;8</title>
<path fill="none" stroke="#000000" stroke-dasharray="5,2" d="M533.817,-478.414C534.5504,-490.0111 537.0219,-503.0739 543.4056,-513.4 545.682,-517.0823 548.306,-520.5761 551.1866,-523.8826"/>
<polygon fill="#000000" stroke="#000000" points="548.8593,-526.5106 558.3307,-531.2587 553.8875,-521.6405 548.8593,-526.5106"/>
<text text-anchor="middle" x="560.7972" y="-500.8" font-family="Courier,monospace" font-size="14.00" fill="#000000">file</text>
</g>
<!-- 14 -->
<g id="node23" class="node">
<title>14</title>
<polygon fill="none" stroke="#000000" points="773.5457,-359.6014 430.4543,-359.6014 430.4543,-302.3986 773.5457,-302.3986 773.5457,-359.6014"/>
<text text-anchor="middle" x="602" y="-343.2" font-family="Courier,monospace" font-size="14.00" fill="#000000">State 14</text>
<text text-anchor="start" x="438.2273" y="-310.4" font-family="Courier,monospace" font-size="14.00" fill="#000000">  7 collection: file COMMA collection .</text>
</g>
<!-- 12&#45;&gt;14 -->
<g id="edge27" class="edge">
<title>12-&gt;14</title>
<path fill="none" stroke="#000000" stroke-dasharray="5,2" d="M551.2188,-421.0418C560.0416,-405.3979 571.0666,-385.8491 580.5873,-368.9676"/>
<polygon fill="#000000" stroke="#000000" points="583.8345,-370.3347 585.6983,-359.9051 577.7373,-366.896 583.8345,-370.3347"/>
<text text-anchor="middle" x="612.993" y="-390.4" font-family="Courier,monospace" font-size="14.00" fill="#000000">collection</text>
</g>
<!-- 13R9 -->
<g id="node24" class="node">
<title>13R9</title>
<polygon fill="#b2df8a" stroke="#000000" points="347,-36 315.0127,-18 347,0 378.9873,-18 347,-36"/>
<text text-anchor="middle" x="347" y="-13.8" font-family="Courier,monospace" font-size="14.00" fill="#000000">R9</text>
</g>
<!-- 13&#45;&gt;13R9 -->
<g id="edge29" class="edge">
<title>13-&gt;13R9</title>
<path fill="none" stroke="#000000" d="M347,-72.9608C347,-64.4388 347,-55.1159 347,-46.6085"/>
<polygon fill="#000000" stroke="#000000" points="350.5001,-46.3902 347,-36.3903 343.5001,-46.3903 350.5001,-46.3902"/>
</g>
<!-- 14R7 -->
<g id="node25" class="node">
<title>14R7</title>
<polygon fill="#b2df8a" stroke="#000000" points="602,-230.2 570.0127,-212.2 602,-194.2 633.9873,-212.2 602,-230.2"/>
<text text-anchor="middle" x="602" y="-208" font-family="Courier,monospace" font-size="14.00" fill="#000000">R7</text>
</g>
<!-- 14&#45;&gt;14R7 -->
<g id="edge30" class="edge">
<title>14-&gt;14R7</title>
<path fill="none" stroke="#000000" d="M602,-302.2418C602,-283.5281 602,-259.2268 602,-240.5875"/>
<polygon fill="#000000" stroke="#000000" points="605.5001,-240.3522 602,-230.3523 598.5001,-240.3523 605.5001,-240.3522"/>
</g>
</g>
</svg>